<svg width="48" height="48" viewBox="0 0 48 48" fill="none" xmlns="http://www.w3.org/2000/svg">
<circle cx="24" cy="24" r="23" fill="white" stroke="#E8E7EC" stroke-width="2"/>
<path d="M24 46C36.1503 46 46 36.1503 46 24C46 11.8497 36.1503 2 24 2C11.8497 2 2 11.8497 2 24C2 36.1503 11.8497 46 24 46Z" fill="white"/>
<path d="M23.0435 24H45.9999C45.9999 22.0144 45.7353 20.0907 45.2421 18.2609H23.0435V24Z" fill="#D80027"/>
<path d="M23.0435 12.5218H42.7709C41.4242 10.3242 39.7023 8.38172 37.6946 6.78259H23.0435V12.5218Z" fill="#D80027"/>
<path d="M24.0003 46C29.178 46 33.9369 44.2104 37.695 41.2174H10.3057C14.0637 44.2104 18.8227 46 24.0003 46Z" fill="#D80027"/>
<path d="M5.22846 35.4783H42.7704C43.8516 33.7141 44.6901 31.7857 45.2416 29.7391H2.75732C3.30879 31.7857 4.14728 33.7141 5.22846 35.4783Z" fill="#D80027"/>
<path d="M12.1908 5.43561H14.1956L12.3308 6.79041L13.0431 8.98259L11.1784 7.62779L9.31362 8.98259L9.92894 7.08879C8.28702 8.45648 6.84791 10.0589 5.66197 11.8443H6.30435L5.1173 12.7067C4.93236 13.0152 4.75498 13.3286 4.585 13.6467L5.15184 15.3913L4.0943 14.6229C3.83141 15.1799 3.59096 15.7494 3.37483 16.3308L3.99934 18.253H6.30435L4.43951 19.6078L5.15184 21.8L3.28709 20.4452L2.17007 21.2568C2.05827 22.1555 2 23.0709 2 24H24C24 11.8498 24 10.4174 24 2C19.654 2 15.6026 3.2607 12.1908 5.43561ZM13.0431 21.8L11.1784 20.4452L9.31362 21.8L10.026 19.6078L8.16112 18.253H10.4661L11.1784 16.0608L11.8906 18.253H14.1956L12.3308 19.6078L13.0431 21.8ZM12.3308 13.1991L13.0431 15.3913L11.1784 14.0365L9.31362 15.3913L10.026 13.1991L8.16112 11.8443H10.4661L11.1784 9.65213L11.8906 11.8443H14.1956L12.3308 13.1991ZM20.9344 21.8L19.0697 20.4452L17.2049 21.8L17.9173 19.6078L16.0524 18.253H18.3574L19.0697 16.0608L19.7819 18.253H22.0869L20.2221 19.6078L20.9344 21.8ZM20.2221 13.1991L20.9344 15.3913L19.0697 14.0365L17.2049 15.3913L17.9173 13.1991L16.0524 11.8443H18.3574L19.0697 9.65213L19.7819 11.8443H22.0869L20.2221 13.1991ZM20.2221 6.79041L20.9344 8.98259L19.0697 7.62779L17.2049 8.98259L17.9173 6.79041L16.0524 5.43561H18.3574L19.0697 3.24343L19.7819 5.43561H22.0869L20.2221 6.79041Z" fill="#0052B4"/>
</svg>
