<svg width="48" height="48" viewBox="0 0 48 48" fill="none" xmlns="http://www.w3.org/2000/svg">
<circle cx="24" cy="24" r="23" fill="#DC2626" stroke="#E8E7EC" stroke-width="2"/>
<path d="M23.5258 9.81622C23.6781 9.36118 24.3217 9.36118 24.474 9.81622L27.5683 19.0593C27.6366 19.2631 27.8275 19.4005 28.0424 19.4005H38.0232C38.5112 19.4005 38.7102 20.0279 38.3114 20.3091L30.2627 25.9848C30.0822 26.1121 30.0066 26.3427 30.0767 26.5522L33.157 35.7536C33.3104 36.2116 32.7895 36.5993 32.3948 36.3209L24.288 30.6043C24.1153 30.4825 23.8845 30.4825 23.7118 30.6043L15.605 36.3209C15.2103 36.5993 14.6894 36.2116 14.8428 35.7536L17.9231 26.5522C17.9932 26.3427 17.9176 26.1121 17.7371 25.9848L9.68842 20.3091C9.28963 20.0279 9.4886 19.4005 9.97657 19.4005H19.9574C20.1723 19.4005 20.3632 19.2631 20.4315 19.0592L23.5258 9.81622Z" fill="#FDE047"/>
</svg>
